<svg xmlns="http://www.w3.org/2000/svg" width="17.11" height="22.813" viewBox="0 0 17.11 22.813">
  <path id="Icon_awesome-award" data-name="Icon awesome-award" d="M4.327,16.157c-.387-.387-.185-.278-1.119-.528a3.215,3.215,0,0,1-1.133-.593L.053,19.992a.713.713,0,0,0,.687.982l2.348-.09L4.7,22.589a.713.713,0,0,0,1.178-.221L8.2,16.682a3.2,3.2,0,0,1-3.873-.525Zm12.729,3.835-2.021-4.956a3.207,3.207,0,0,1-1.133.593c-.939.251-.733.142-1.119.528a3.2,3.2,0,0,1-3.873.525l2.319,5.686a.713.713,0,0,0,1.178.221l1.615-1.706,2.348.09a.713.713,0,0,0,.687-.982Zm-5.338-4.843c.681-.693.759-.633,1.728-.9a1.811,1.811,0,0,0,1.268-1.291,2.863,2.863,0,0,1,1.156-2.038,1.848,1.848,0,0,0,.464-1.764,2.9,2.9,0,0,1,0-2.354,1.848,1.848,0,0,0-.464-1.764A2.864,2.864,0,0,1,14.715,3a1.811,1.811,0,0,0-1.268-1.291,2.793,2.793,0,0,1-2-1.177A1.773,1.773,0,0,0,9.711.062,2.757,2.757,0,0,1,7.4.062,1.772,1.772,0,0,0,5.666.534a2.791,2.791,0,0,1-2,1.177A1.811,1.811,0,0,0,2.395,3,2.863,2.863,0,0,1,1.239,5.041,1.847,1.847,0,0,0,.774,6.8a2.9,2.9,0,0,1,0,2.353,1.849,1.849,0,0,0,.464,1.764A2.863,2.863,0,0,1,2.395,12.96a1.811,1.811,0,0,0,1.268,1.291c1,.272,1.072.229,1.728.9a1.771,1.771,0,0,0,2.216.259,1.768,1.768,0,0,1,1.895,0A1.77,1.77,0,0,0,11.718,15.149ZM4.351,7.84a4.2,4.2,0,1,1,4.2,4.278,4.241,4.241,0,0,1-4.2-4.278Z" transform="translate(0 0.001)" fill="#b79079"/>
</svg>
