<svg id="Layer_1" data-name="Layer 1" xmlns="http://www.w3.org/2000/svg" width="412.69" height="82.385" viewBox="0 0 412.69 82.385">
  <path id="Path_71" data-name="Path 71" d="M10.5,11.048a4.278,4.278,0,0,1,2.913,5.091,3.884,3.884,0,0,1-4.724,3.28c-2.808-.262-4.146-1.653-4.015-4.2Q5.02,7.347,19.217,7.347a12.6,12.6,0,0,1,9.658,3.884A14.827,14.827,0,0,1,32.47,21.6H22.183a13.568,13.568,0,0,0-10,4.356,13.122,13.122,0,0,0-4.173,9.631,14.513,14.513,0,0,0,4.3,10.5,18.37,18.37,0,0,0,11.311,4.986,55.976,55.976,0,0,0,9.841,0v-31.2a13.856,13.856,0,0,1,2.756-9.133A8.66,8.66,0,0,1,43.1,7.426h7.086V10.05c-2.493-.656-4.251-.394-5.249.84a1.916,1.916,0,0,0-.551,1.26c0,.787,1.128,2.309,3.359,4.593a10.314,10.314,0,0,1,3.543,6.036,8.923,8.923,0,0,1-9.448,10.287A6.771,6.771,0,0,1,36.932,31.7V50.78a20.129,20.129,0,0,0,13.463-7.269v5.642a47.737,47.737,0,0,1-13.463,3.989V68.888H33.467V53.3a63.246,63.246,0,0,1-14.014,0,24.433,24.433,0,0,1-13.8-5.249A15.274,15.274,0,0,1,.007,35.585,14.591,14.591,0,0,1,5.65,23.776a19.6,19.6,0,0,1,12.728-4.2H29.82q-1.1-8.188-7.269-9.658a21.913,21.913,0,0,0-4.645-.525A17.137,17.137,0,0,0,10.5,11.048ZM36.748,29.129a3.674,3.674,0,0,0,3.464.472,6.482,6.482,0,0,0,3.805-4.566,7.873,7.873,0,0,0,.6-2.834,21.651,21.651,0,0,0-1.837-6.981,16.244,16.244,0,0,1-1.076-3.464,2.992,2.992,0,0,1,1.076-2.178l-1.863.945a7.873,7.873,0,0,0-2.047,1.785,11.363,11.363,0,0,0-1.994,7.348Z" transform="translate(0.005 12.125)"/>
  <path id="Path_72" data-name="Path 72" d="M23.456,18.269H21.54a10.655,10.655,0,0,1,2.939-7.374A9.343,9.343,0,0,1,31.722,7.43,13.384,13.384,0,0,1,43.978,15.3a31.492,31.492,0,0,1,3.648,15.746,28.867,28.867,0,0,1-3.884,15.116,13.725,13.725,0,0,1-12.124,7.374,9.658,9.658,0,0,1-7.4-3.044,10.051,10.051,0,0,1-2.624-7.663h1.994a8.739,8.739,0,0,0,1.994,5.249,7.479,7.479,0,0,0,6.088,2.624c2.861,0,5.065-2.362,6.64-7.086A41.1,41.1,0,0,0,40.12,30.813a45.636,45.636,0,0,0-1.627-13.122c-1.522-4.645-3.727-6.981-6.64-6.981C27.209,10.632,24.4,13.177,23.456,18.269Z" transform="translate(35 12.279)"/>
  <path id="Path_73" data-name="Path 73" d="M91.121,36.787a17.845,17.845,0,0,1-3.175,10.366A14.539,14.539,0,0,1,75.3,53.714q-10.156,0-12.387-6.193c-1.575,4.173-5.8,6.272-12.623,6.272a14.014,14.014,0,0,1-12.046-5.8,26.06,26.06,0,0,1-4.225-15.746A26.978,26.978,0,0,1,40,14.559a18.37,18.37,0,0,1,9.553-6.482,21.2,21.2,0,0,1,5.485-.735,11.547,11.547,0,0,1,5.249,1.05v2.624a9.553,9.553,0,0,0-5.249-1.207A15.746,15.746,0,0,0,41.6,16.973a24.275,24.275,0,0,0-4.461,15.011A16.14,16.14,0,0,0,41.022,42.8a12.413,12.413,0,0,0,9.71,4.094,10.5,10.5,0,0,0,7.558-2.624A10.025,10.025,0,0,0,61.125,36.6V32.719h2.624v3.91a9.553,9.553,0,0,0,3.359,7.716,12.361,12.361,0,0,0,8.267,2.624,10.5,10.5,0,0,0,9.369-4.278,13.253,13.253,0,0,0,2.467-6.456A12.413,12.413,0,0,0,83.484,25.5a13.935,13.935,0,0,0-10.077-3.884h-12.1A13.541,13.541,0,0,1,62.752,12.8q3.2-5.485,11.731-5.459a23.12,23.12,0,0,1,6.8.735,10,10,0,0,1,5.249,4.356,8.162,8.162,0,0,1,1.233,4.54,5.459,5.459,0,0,1-2.624,5.537,17.111,17.111,0,0,1,5.983,14.276ZM81.043,20.332a4.724,4.724,0,0,0,1.994-4.3,5.826,5.826,0,0,0-.814-2.939c-1.338-2.2-3.989-3.28-7.873-3.28q-10,0-10.261,9.526h11.1a14.67,14.67,0,0,1,5.852,1Z" transform="translate(55.197 12.104)"/>
  <path id="Path_74" data-name="Path 74" d="M86.978,17.89V53.082H42.522a6.43,6.43,0,0,1-7.086-6.272,13.779,13.779,0,0,1,0-1.47,7.716,7.716,0,0,1,2.624-6.456h2.992a5.642,5.642,0,0,0-2.073,4.2c0,2.624,2.152,3.91,6.456,3.91H84.2V25.159a34.273,34.273,0,0,0,2.782-7.269Z" transform="translate(57.529 29.269)"/>
  <path id="Path_75" data-name="Path 75" d="M99.7,18.013H97.075a13.647,13.647,0,0,0-6.456-6.64A19.683,19.683,0,0,0,81.539,9.3a21,21,0,0,0-13.122,4.173A19.5,19.5,0,0,0,60.86,29.56a15.746,15.746,0,0,0,5.9,12.623,20.26,20.26,0,0,0,13.725,4.2q12.912,0,16.454-10a12.256,12.256,0,0,0,.735-4.094,12.754,12.754,0,0,0-3.543-8.818,11.7,11.7,0,0,0-7.453-4.094A10.287,10.287,0,0,1,90.935,28.2a9.237,9.237,0,0,1-.525,3.1,10,10,0,0,1-9.972,7.164,10.209,10.209,0,0,1-7.873-3.07,11.075,11.075,0,0,1-3.228-7.873,9.133,9.133,0,0,1,3.517-7.164,12.649,12.649,0,0,1,8.4-3.333c6.666,0,11.731,1.6,15.195,5.249a17.163,17.163,0,0,1,4.8,12.361,17.636,17.636,0,0,1-5.537,13.7,21.283,21.283,0,0,1-15.09,5.432,28.579,28.579,0,0,1-9.448-1.286A21.31,21.31,0,0,1,63.3,47.222a21.939,21.939,0,0,1-6.167-16.087,22.412,22.412,0,0,1,9.579-19.368A24.563,24.563,0,0,1,81.539,7.306a21.992,21.992,0,0,1,11.127,2.808,15.746,15.746,0,0,1,7.033,7.9ZM73.273,23.551a8.345,8.345,0,0,0-1.181,4.278A7.637,7.637,0,0,0,76,34.835a8.188,8.188,0,0,0,4.251,1.181,7.689,7.689,0,0,0,7.007-3.91,8.267,8.267,0,0,0,1.181-4.278,7.689,7.689,0,0,0-3.91-6.981,8.267,8.267,0,0,0-4.278-1.207,7.663,7.663,0,0,0-6.981,3.91Z" transform="translate(92.78 12.061)"/>
  <path id="Path_76" data-name="Path 76" d="M98.972,56.515a8.45,8.45,0,0,1-2.992,5.249,9.106,9.106,0,0,1-6.088,1.863c-4.409,0-7.873-2.441-10.707-7.269a29.393,29.393,0,0,1-3.648-14.906,24.8,24.8,0,0,1,5.9-16.822,20.522,20.522,0,0,1,16.323-7.191,17.452,17.452,0,0,1,11.285,3.727,12.518,12.518,0,0,1,5.012,10.182,13.123,13.123,0,0,1-.262,2.624,10.839,10.839,0,0,1-5.537,6.377l-4.015,2.624a6.115,6.115,0,0,0-2.257,4.54,7.558,7.558,0,0,0,2.624,6.771,10.707,10.707,0,0,0,7.532,1.863q8.188-.63,12.544-10.5a37.214,37.214,0,0,0,2.624-15.09,31.046,31.046,0,0,0-2.336-11.18,26.243,26.243,0,0,0-5.852-9.474Q113.091,4,101.859,4A25.955,25.955,0,0,0,88.5,7.362,16.77,16.77,0,0,0,80.628,17.2H77.794A16.455,16.455,0,0,1,86.349,5.367a28.553,28.553,0,0,1,15.615-4.12A36.005,36.005,0,0,1,114.246,2.9a21.808,21.808,0,0,1,9.448,7.3,37.843,37.843,0,0,1,8.372,24.564,38.735,38.735,0,0,1-4.724,19.6c-3.6,6.062-8.4,9.264-14.46,9.264a15.746,15.746,0,0,1-9.867-2.257A14.066,14.066,0,0,1,98.972,56.515Zm-.184-9.894a10.051,10.051,0,0,1,4.829-6.928,29.312,29.312,0,0,0,3.989-2.624,5.249,5.249,0,0,0,1.811-4.2,6.4,6.4,0,0,0-4.356-5.983,20.207,20.207,0,0,0-8.9-1.732,15.746,15.746,0,0,0-10.97,3.989A17.9,17.9,0,0,0,79.6,39.326a46.139,46.139,0,0,0-.262,6.456,7.007,7.007,0,0,1,3.805-4.776,11.862,11.862,0,0,1,6.561-1.68,10.943,10.943,0,0,1,9.08,7.191ZM83.2,44.942a7.112,7.112,0,0,0-2.047,5.117A6.9,6.9,0,0,0,83.3,55.308a7.374,7.374,0,0,0,10.314,0,7.243,7.243,0,0,0,0-10.261A7.059,7.059,0,0,0,88.37,42.9a6.744,6.744,0,0,0-5.17,2.047Z" transform="translate(122.69 2.191)"/>
  <path id="Path_77" data-name="Path 77" d="M99.746,18.269H97.83a10.655,10.655,0,0,1,3.07-7.374,9.4,9.4,0,0,1,7.243-3.464A13.384,13.384,0,0,1,120.4,15.3a31.492,31.492,0,0,1,3.648,15.746,28.868,28.868,0,0,1-3.91,15.274,13.725,13.725,0,0,1-12.1,7.348,9.658,9.658,0,0,1-7.4-3.044,10.051,10.051,0,0,1-2.624-7.663h1.994A8.739,8.739,0,0,0,102,48.212a7.479,7.479,0,0,0,6.088,2.624c2.86,0,5.065-2.362,6.64-7.086a41.1,41.1,0,0,0,1.811-12.807,45.638,45.638,0,0,0-1.627-13.122c-1.522-4.645-3.727-6.981-6.64-6.981C103.525,10.632,100.69,13.177,99.746,18.269Z" transform="translate(158.92 12.279)"/>
  <path id="Path_78" data-name="Path 78" d="M105.639,7.189c0-2.362-.472-3.648-1.443-3.832-1.391-.236-2.624.656-4.015,2.624V3.1A4.671,4.671,0,0,1,103.828.471c2.231-.367,3.6.367,4.094,2.178A7.4,7.4,0,0,1,114.9.025q7.637.63,7.637,8.739a6.4,6.4,0,0,1-2.624,5.406,9.972,9.972,0,0,1-6.167,2.047q-4.094,0-5.249-1.653v7.716a9.421,9.421,0,0,0-2.624-1Zm6.456,6.535a3.91,3.91,0,0,0,1.443-.262c1.706-.6,2.624-2.257,2.624-4.907a6.325,6.325,0,0,0-1-3.832A3.6,3.6,0,0,0,112.357,3.1a3.936,3.936,0,0,0-2.624,1.128A3.569,3.569,0,0,0,108.5,6.848v3.963c-.131,1.942,1.1,2.913,3.6,2.913Z" transform="translate(162.737 0.08)"/>
  <path id="Path_79" data-name="Path 79" d="M117.766,21.005a3.254,3.254,0,0,1,2.834,1.207,3.858,3.858,0,0,1,.892,2.965c-.236,1.942-1.575,2.965-3.989,3.1a4.986,4.986,0,0,1-3.464-1.181,4.015,4.015,0,0,1-1.548-3.175,4.882,4.882,0,0,1,.656-2.126,9.789,9.789,0,0,1,7.873-4.907,39.89,39.89,0,0,1,5.721-.157q7.873.157,11.1,4.8A12.623,12.623,0,0,1,140.02,28.8a12,12,0,0,1-.184,2.178H126.925a13.8,13.8,0,0,0-9.526,3.149,9.028,9.028,0,0,0-3.175,8.45A14.119,14.119,0,0,0,120.6,52.13q5,3.543,15.746,3.543a25.168,25.168,0,0,0,10.5-2.362,21.572,21.572,0,0,0,7.374-5.249,26.243,26.243,0,0,0,5.8-17.557,28.237,28.237,0,0,0-5.249-17.793,22.805,22.805,0,0,0-19.158-8.555A26.243,26.243,0,0,0,121.02,7.883a18.528,18.528,0,0,0-6.9,8H111.2A20.364,20.364,0,0,1,118.4,6.545a28.159,28.159,0,0,1,17.189-4.907q14.3,0,21.362,9.448a37.345,37.345,0,0,1,7.086,23.068q0,13.673-7.348,21.362a26.4,26.4,0,0,1-20.1,7.873,33.434,33.434,0,0,1-18.633-4.383,18.37,18.37,0,0,1-5.8-6.508,17.242,17.242,0,0,1-2.467-8.792,15.142,15.142,0,0,1,4.225-10.865,14.828,14.828,0,0,1,11.232-4.409l11.442-.184a8.923,8.923,0,0,0-3.622-7.243,16.008,16.008,0,0,0-8.372-1.6A10.5,10.5,0,0,0,117.766,21.005Z" transform="translate(178.165 2.824)"/>
  <path id="Path_80" data-name="Path 80" d="M139.177,30.3a6.981,6.981,0,0,0,2.362.367,9.159,9.159,0,0,0,5.249-1.627,14.906,14.906,0,0,0,6.535-9,9.367,9.367,0,0,0,.262-2.283,8.371,8.371,0,0,0-1.889-5.537,5.984,5.984,0,0,0-5.012-2.178A7.165,7.165,0,0,0,141.04,12.4a9.029,9.029,0,0,0-1.706,3.464,5.774,5.774,0,0,1,1.994-.367,3.464,3.464,0,0,1,2.808,1.181,3.858,3.858,0,0,1,1,2.624,3.359,3.359,0,0,1-1.076,2.624,3.858,3.858,0,0,1-2.624,1,4.041,4.041,0,0,1-3.674-1.863,6.9,6.9,0,0,1-.971-4.671,9.422,9.422,0,0,1,3.175-6.4A10.5,10.5,0,0,1,153.086,9.7a9.106,9.106,0,0,1,3.149,6.141,21,21,0,0,1,16.9-8.372,19.892,19.892,0,0,1,14.276,5.249,25.22,25.22,0,0,1,7.873,19.053,20.312,20.312,0,0,1-9.631,17.977,28.186,28.186,0,0,1-16.533,4.015V50.876a14.646,14.646,0,0,0,1.89,0,17.111,17.111,0,0,0,12.1-4.2c3.464-3.149,5.249-7.873,5.249-14.539a21.7,21.7,0,0,0-2.178-10.182,15.2,15.2,0,0,0-12.256-8.529,29.892,29.892,0,0,0-4.383-.367A13.961,13.961,0,0,0,156,20.7a13.515,13.515,0,0,1,2.834-.262,17.714,17.714,0,0,1,6.9,1.443,13.358,13.358,0,0,1,5.249,3.648,15.562,15.562,0,0,1,3.727,10.5,16.087,16.087,0,0,1-7.086,13.725,22.648,22.648,0,0,1-13.463,3.805q-14.723,0-19.814-11.809a25.193,25.193,0,0,1-1.916-10.077,30.838,30.838,0,0,1,.472-5.459h2.624C135.476,27.992,136.684,29.33,139.177,30.3Zm-3.254,7.453a14.854,14.854,0,0,0,3.569,6.167,17.478,17.478,0,0,0,12.36,3.832,20.024,20.024,0,0,0,11.521-3.28,11.888,11.888,0,0,0,5.459-10.261,13.122,13.122,0,0,0-1.758-6.928,8.083,8.083,0,0,0-4.593-3.727,15.4,15.4,0,0,0-4.461-.63q-2.913,0-3.622,1.181a29.891,29.891,0,0,1-6.193,6.823,9.815,9.815,0,0,1-6.718,2.1c-3.464,0-5.695-.945-6.744-2.834a21.309,21.309,0,0,0,1.181,7.558Z" transform="translate(215.119 12.318)"/>
  <path id="Path_81" data-name="Path 81" d="M154.162,7.125c0-2.362-.472-3.648-1.443-3.832-1.391-.236-2.624.656-3.989,2.624V3.032A4.592,4.592,0,0,1,152.352.407c2.336-.341,3.622.446,4.094,2.283A7.427,7.427,0,0,1,163.452.066q7.637.63,7.637,8.739a6.456,6.456,0,0,1-2.624,5.406,10.1,10.1,0,0,1-6.193,2.047q-4.094,0-5.249-1.653v7.611a9.16,9.16,0,0,0-2.624-1Zm6.456,6.535a4.146,4.146,0,0,0,1.47-.262c1.68-.6,2.624-2.257,2.624-4.907a6.509,6.509,0,0,0-1-3.832,3.674,3.674,0,0,0-2.834-1.627,3.937,3.937,0,0,0-2.624,1.128,3.569,3.569,0,0,0-1.233,2.624v3.963c-.131,1.942,1.128,2.913,3.6,2.913Z" transform="translate(241.598 0.144)"/>
</svg>
