<svg xmlns="http://www.w3.org/2000/svg" width="69.7" height="69.7" viewBox="0 0 69.7 69.7">
  <g id="Group_147" data-name="Group 147" transform="translate(-1598 -940)">
    <path id="Path_5" data-name="Path 5" d="M44.609,41.694a4.688,4.688,0,0,0-2.931-.753H22.224c-5.814,0-10.806-4.373-10.806-9.92V14.133h-.3a7.612,7.612,0,0,0-7.74,7.623v21.6c0,4.189,3.586,6.8,7.992,6.8H14.1V58.2L23,50.658a3.552,3.552,0,0,1,2.211-.5H40.253c3.853,0,7.942-1.911,8.7-5.362Z" transform="translate(1594.625 951.502)" fill="#ffc105"/>
    <path id="Path_6" data-name="Path 6" d="M54.74,3.375H18.331C12.52,3.375,9,7.864,9,13.4v28.18A10.285,10.285,0,0,0,19.506,51.629h16.94a4.6,4.6,0,0,1,2.931.7l12.515,10.02V51.629H54.74A10.314,10.314,0,0,0,65.3,41.592V13.4A10.3,10.3,0,0,0,54.74,3.375Z" transform="translate(1602.404 936.625)" fill="#ffc105"/>
  </g>
</svg>
