<svg xmlns="http://www.w3.org/2000/svg" width="45.666" height="45.624" viewBox="0 0 45.666 45.624">
  <path id="house" d="M44.8,24.773a2.854,2.854,0,0,1-2.1.87,2.751,2.751,0,0,1-2.074-.892l-.668-.624V42.768h4.281a1.427,1.427,0,0,1,0,2.854H1.471a1.371,1.371,0,0,1-1-.424,1.4,1.4,0,0,1,0-2.007,1.371,1.371,0,0,1,1-.424H5.708V24.127l-.668.624a2.751,2.751,0,0,1-2.074.892,2.854,2.854,0,0,1-2.1-.87,2.863,2.863,0,0,1-.87-2.1A2.817,2.817,0,0,1,.847,20.6L20.647.848A2.825,2.825,0,0,1,22.833,0a2.825,2.825,0,0,1,2.186.847L44.774,20.6a2.751,2.751,0,0,1,.892,2.074,2.854,2.854,0,0,1-.87,2.1ZM19.979,29.924A1.447,1.447,0,0,0,18.552,28.5H12.844a1.447,1.447,0,0,0-1.427,1.427V42.768h8.562Zm14.271,0A1.447,1.447,0,0,0,32.822,28.5H27.114a1.447,1.447,0,0,0-1.427,1.427v5.708a1.447,1.447,0,0,0,1.427,1.427h5.708a1.447,1.447,0,0,0,1.427-1.427Z" transform="translate(0 0.002)" fill="#fff"/>
</svg>
