<svg xmlns="http://www.w3.org/2000/svg" width="57.45" height="60.474" viewBox="0 0 57.45 60.474">
  <g id="Group_153" data-name="Group 153" transform="translate(-1359 -2284)">
    <g id="bx-building-house" transform="translate(1356 2281)">
      <path id="Path_86" data-name="Path 86" d="M54.4,3H24.166a6.052,6.052,0,0,0-6.047,6.047v16.89L3.887,40.169a3.024,3.024,0,0,0,2.137,5.162V60.45a3.024,3.024,0,0,0,3.024,3.024H57.426A3.024,3.024,0,0,0,60.45,60.45V9.047A6.052,6.052,0,0,0,54.4,3ZM30.213,57.427H12.071V40.536l9.071-9.071,9.071,9.071Zm24.19,0H36.26V45.332A3.02,3.02,0,0,0,38.4,40.169L24.166,25.938V9.047H54.4Z" transform="translate(0)" fill="#fff"/>
      <path id="Path_87" data-name="Path 87" d="M22.595,9h6.047v6.047H22.595ZM34.69,9h6.047v6.047H34.69Zm0,12.188h6.047v5.955H34.69Zm0,12h6.047v6.047H34.69ZM10.5,36.213h6.047v6.047H10.5Z" transform="translate(7.618 6.095)" fill="#fff"/>
    </g>
  </g>
</svg>
